<?xml version="1.0" encoding="UTF-8"?>
<svg version="1.1" viewBox="0 0 800 800" width="800" height="800" xmlns="http://www.w3.org/2000/svg">
<path transform="translate(396)" d="m0 0h8l20 20 7 8 15 15 7 8 15 15 1 3 8 7 10 10 6 8 15 15 8 10 148-4h16l1 4 4 1-1 54-3 97v13l11 9 16 16 6 4 15 15 2 3 5 3 19 19 8 7 15 15 8 7 14 14v8l-13 13-8 7-15 15-8 7-16 16-4 2-7 8-10 10-6 4-18 18-8 7-6 5v15l3 97 1 52-3 1-2 4-114-3-31-1h-19l-9 10-11 12-12 12-3 5-7 6-7 8-4 4-7 8-16 16-7 8-15 15-7 8-7 7h-8l-9-9-7-8-16-16-7-8-15-15-1-3-8-7-10-10-6-8-17-17-7-8-9-10h-20l-144 4-2-4-3-1 2-85 2-63v-16l-12-11-15-14-9-9-8-6-6-7-8-7-2-3-5-3-19-19-8-7-16-16-8-7-3-3v-8l17-17 8-7 15-15 8-7 14-14h3l2-4 7-6 7-8 5-5 5-3 17-17 11-9v-18l-4-139v-7l4-1 1-4h17l147 4 7-8 12-13 10-10 6-8 7-6 7-8 3-1 1-4 19-19 7-8 15-15 7-8zm3 83-16 16-7 8-15 15-7 8-5 6 9 6 13 8 16 12 12 10 5-2 10-9 15-11 15-9 6-4v-3l-16-17-12-12-7-8-14-14zm-224 91v37l1 37 2 2 8-3 9-2 7-2 16-2 14-1 6-2 2-4 3-30 5-22 2-5-1-1-64-2zm442 0-66 2v3l4 16 2 7 3 31 2 5 7 1 1 1 28 3 7 2 16 4 2 1 1-2 2-73-1-1zm-306 10-4 7-4 10-3 16-1 2v6l-1 1v11h37l23-23-2-4-15-12-15-9-12-5zm176 0-12 5-11 6-11 8-11 9 2 4 21 21h37v-12l-1-1v-7l-2-7-2-9-5-12-3-5zm-132 113-57 57-1 2v88l59 59h88l59-59v-89l-58-58zm208 0v37l7 8 16 16 4-2 13-17 8-14 5-12v-3l-13-5-8-3-19-3-1-1zm-327 0-11 1-1 1-19 3-16 6-5 4 5 13 7 12 12 16 4 5 4-2 20-20 2-4v-34zm-101 52-9 9-8 7-16 16-8 7-11 11 2 4 8 8 8 7 15 15 8 7 11 11 5-5 8-14 11-15 9-11 4-5-1-4-9-10-13-18-12-20zm529 0-4 5-8 14-14 19-9 10-1 4 12 14 13 18 9 16 3 2 13-13 8-7 16-16 8-7 7-7-2-4-18-18-8-7-15-15-8-7zm-452 93-10 12-10 15-7 15-1 5 7 4 15 5 20 3 1 1h11v-36l-24-24zm374 0-24 24 1 36h10l1-1 20-3 17-6 5-3-1-5-4-9-9-16-13-16zm-408 108-2 2-1 37v36h35l35-1 5-2-4-14-3-12-3-31-3-5-25-2-14-2-6-2-12-3zm443 0-8 3-10 2-7 2-31 3-3 2-2 5-3 31-2 5-4 20 2 1 40 1h33l-2-73-1-2zm-323 12v11l1 1v8l2 7 2 9 6 14 2 3 7-1 16-8 14-10 10-8-2-4-22-22zm168 0-24 24v2l14 11 15 10 11 5 7 1 5-8 4-12 2-12 1-2v-5l1-1v-13zm-67 66-11 9-13 10-14 9-12 7 2 4 15 15 7 8 15 15 7 8 4 4 4-2 11-11 7-8 16-16 7-8 7-7-1-3-19-11-19-14-10-9z" fill="#1A8CCA"/>
<path transform="translate(396)" d="m0 0h8l20 20 7 8 15 15 7 8 15 15 1 3 8 7 10 10 6 8 15 15 9 11 10 12 10 15 8 14 3 8 3 6 5 20 2 7 3 31 1 5h7l1 1 28 3 7 2 16 4 3 1v22l-2 19-3 17-2 4-17-6-5-2-19-3-1-1-11-1-1 86-3 5-54 54h-3l-1-88-57-57h-90l-56 56-1 2-1 87-4-1-54-54-1-2-1-54v-34l-12 1-1 1-19 3-16 6-3 2h-3l-3-9-3-20-1-15v-18l10-3 9-2 7-2 16-2 14-1 1-1h5l1-4 3-30 5-22 8-20 7-13 7-10 4-7 11-13 7-8 12-13 10-10 6-8 7-6 7-8 3-1 1-4 19-19 7-8 15-15 7-8zm3 83-16 16-7 8-15 15-7 8-5 6 9 6 13 8 16 12 12 10 5-2 10-9 15-11 15-9 6-4v-3l-16-17-12-12-7-8-14-14zm-88 101-4 7-4 10-3 16-1 2v6l-1 1v11h37l23-23-2-4-15-12-15-9-12-5zm176 0-12 5-11 6-11 8-11 9 2 4 21 21h37v-12l-1-1v-7l-2-7-2-9-5-12-3-5z" fill="#8C267C"/>
<path transform="translate(239,467)" d="m0 0 7 6 87 87v2h-35l1 11 1 1v8l2 7 2 9 6 14 7 13 13 17 7 8 12 13 7 8 11 11 7 8 15 15 7 8 3 3 4-2 10-10 7-8 16-16 7-8 7-7 7-8 13-14 8-11 7-10 8-15 4-12 2-12 1-2v-5l1-1 1-13h-35l2-4 91-91h3v35l10-1 1-1 20-3 17-6 6-3 2 3 4 24 1 12v24l-4 1-17 4-7 2-31 3-3 1-1 5-3 31-2 5-4 18-9 21-5 9-7 10-3 5-13 16-7 8-12 13-12 12-3 5-7 6-7 8-4 4-7 8-16 16-7 8-15 15-7 8-7 7h-8l-9-9-7-8-16-16-7-8-15-15-1-3-8-7-10-10-6-8-17-17-7-8-10-11-11-14-7-11-9-15-6-15-3-9-3-13-2-7-3-31-2-4-25-2-14-2-6-2-16-4v-19l2-21 3-17 2-5 5 1 7 3 11 4 20 3 1 1 11 1v-34z" fill="#8C267C"/>
<path transform="translate(450,136)" d="m0 0 7 6 10 10 9 11 4 6 7 10 2 4-5 3-9 4-11 6-11 8-10 8 2 4 20 20 3 2 2 4 33 33 1 2v77h-3l-56-56h-90l-58 58v-81l35-35 1-3 8-7 16-16-2-4-17-13-16-9-10-4 2-7 9-12 8-10 12-13 5-5 5 1 17 10 17 13 12 10 5-2 10-9 15-11 15-9z" fill="#1A8CCA"/>
<path transform="translate(119,284)" d="m0 0h3l3 23 5 20 6 16 1 6-8 7-13 12-14 14-8 7-10 10 2 4 7 7 8 7 15 15 8 7 11 11 2 1-1 6-8 22-5 25-1 11h-4l-10-9-16-15-9-9-8-6-6-7-8-7-2-3-5-3-19-19-8-7-16-16-8-7-3-3v-8l17-17 8-7 15-15 8-7 14-14h3l2-4 7-6 7-8 5-5 5-3 17-17z" fill="#8C267C"/>
<path transform="translate(679,284)" d="m0 0 5 2 16 15 8 8 6 4 15 15 2 3 5 3 19 19 8 7 15 15 8 7 14 14v8l-13 13-8 7-15 15-8 7-16 16-4 2-7 8-10 10-6 4-18 18-8 7-6 5h-2l-1-2-2-18-6-25-5-13-2-4 1-4 7-6 7-7 8-7 16-16 8-7 6-6-2-4-17-17-8-7-15-15-8-7-3-2 1-6 6-15 6-25 2-17z" fill="#8C267C"/>
<path transform="translate(399,252)" d="m0 0 4 2 41 41v2h-87l1-4z" fill="#8C267C"/>
<path transform="translate(357,503)" d="m0 0h87l-2 4-40 40-5-1-40-40z" fill="#8C267C"/>
</svg>
